<svg xmlns="http://www.w3.org/2000/svg" viewBox="0 0 71.9 11.8">
  <!-- the leaf slit rotated horizontal; stretch with preserveAspectRatio="none" for underlines/strikes/dashes -->
  <path fill="currentColor" d="M0.0,5.0C-0.2,4.4 0.4,4.0 2.0,3.6C3.7,3.1 2.9,2.9 9.9,2.3C16.8,1.7 34.6,0.2 43.7,0.0C52.8,-0.1 60.1,1.2 64.4,1.7C68.7,2.1 68.4,2.4 69.7,3.0C70.9,3.5 72.0,4.2 71.9,5.0C71.9,5.5 71.6,6.1 69.5,6.9C67.3,7.8 64.0,8.8 58.8,9.7C53.5,10.4 45.3,11.8 38.1,11.8C30.8,11.8 20.9,10.4 15.1,9.6C9.3,8.8 5.9,7.7 3.4,7.0C0.9,6.2 0.3,5.5 0.0,5.0Z"/>
</svg>
